<svg width="510" height="510" viewBox="0 0 510 510" fill="none" xmlns="http://www.w3.org/2000/svg">
<rect width="510" height="510" fill="#524F67"/>
<path d="M152.345 236.636V273H147.303L128.819 246.331H128.482V273H122.995V236.636H128.073L146.575 263.341H146.912V236.636H152.345ZM160.349 273V236.636H182.898V241.359H165.835V252.439H181.282V257.144H165.835V273H160.349ZM187.852 241.359V236.636H215.995V241.359H204.649V273H199.18V241.359H187.852ZM240.933 236.636V273H235.446V236.636H240.933ZM248.923 236.636H255.581L267.158 264.903H267.584L279.161 236.636H285.819V273H280.599V246.686H280.262L269.537 272.947H265.205L254.48 246.668H254.143V273H248.923V236.636ZM296.868 273H291.044L304.13 236.636H310.468L323.554 273H317.73L307.45 243.241H307.166L296.868 273ZM297.844 258.76H316.736V263.376H297.844V258.76ZM351.706 248.124C351.363 247.047 350.901 246.082 350.321 245.23C349.753 244.366 349.072 243.632 348.279 243.028C347.486 242.413 346.58 241.945 345.562 241.626C344.556 241.306 343.45 241.146 342.242 241.146C340.194 241.146 338.348 241.673 336.702 242.727C335.057 243.78 333.755 245.325 332.796 247.361C331.849 249.385 331.376 251.865 331.376 254.8C331.376 257.748 331.855 260.24 332.814 262.276C333.773 264.312 335.087 265.856 336.756 266.91C338.425 267.963 340.325 268.49 342.455 268.49C344.432 268.49 346.154 268.088 347.622 267.283C349.102 266.478 350.244 265.341 351.049 263.874C351.866 262.394 352.274 260.654 352.274 258.653L353.695 258.92H343.29V254.392H357.583V258.529C357.583 261.583 356.932 264.235 355.63 266.484C354.34 268.721 352.552 270.449 350.268 271.668C347.995 272.888 345.391 273.497 342.455 273.497C339.165 273.497 336.276 272.74 333.79 271.224C331.317 269.709 329.387 267.561 328.002 264.779C326.617 261.986 325.925 258.671 325.925 254.836C325.925 251.936 326.327 249.332 327.132 247.023C327.937 244.715 329.067 242.756 330.523 241.146C331.991 239.525 333.714 238.288 335.69 237.435C337.679 236.571 339.851 236.139 342.207 236.139C344.172 236.139 346 236.429 347.693 237.009C349.398 237.589 350.913 238.412 352.239 239.477C353.576 240.543 354.683 241.809 355.559 243.277C356.435 244.733 357.027 246.349 357.335 248.124H351.706ZM364.548 273V236.636H387.346V241.359H370.034V252.439H386.156V257.144H370.034V268.277H387.559V273H364.548Z" fill="black"/>
</svg>
