<svg width="1728" height="265" viewBox="0 0 1728 265" fill="none" xmlns="http://www.w3.org/2000/svg">
<mask id="path-1-inside-1_212_1438" fill="white">
<path d="M0 0H1728V265H0V0Z"/>
</mask>
<path d="M0 -1H1728V1H0V-1ZM1728 266H0V264H1728V266ZM0 265V0V265ZM1728 0V265V0Z" fill="#3F3C4F" mask="url(#path-1-inside-1_212_1438)"/>
<rect x="20.5115" y="77.601" width="225.131" height="52.6956" rx="9.5" fill="#121016" stroke="#3F3C4F"/>
<rect x="273.658" y="77.601" width="225.131" height="52.6956" rx="9.5" fill="#121016" stroke="#3F3C4F"/>
<rect x="132.576" y="147.238" width="225.131" height="52.6956" rx="9.5" fill="#121016" stroke="#3F3C4F"/>
<rect x="386.724" y="149.754" width="225.131" height="52.6956" rx="9.5" fill="#121016" stroke="#3F3C4F"/>
<rect x="1115.14" y="62.5" width="225.131" height="52.6956" rx="9.5" fill="#121016" stroke="#3F3C4F"/>
<rect x="1368.29" y="62.5" width="225.131" height="52.6956" rx="9.5" fill="#121016" stroke="#3F3C4F"/>
<rect x="1227.21" y="132.135" width="225.131" height="52.6956" rx="9.5" fill="#121016" stroke="#3F3C4F"/>
<rect x="1481.36" y="134.653" width="225.131" height="52.6956" rx="9.5" fill="#121016" stroke="#3F3C4F"/>
</svg>
